<mxfile host="app.diagrams.net" agent="Mozilla/5.0 (Windows NT 10.0; Win64; x64) AppleWebKit/537.36 (KHTML, like Gecko) Chrome/141.0.0.0 Safari/537.36" version="28.2.8">
  <diagram id="9Ee042pRYzr10-zepNjb" name="Page-1">
    <mxGraphModel dx="1426" dy="743" grid="1" gridSize="10" guides="1" tooltips="1" connect="1" arrows="1" fold="1" page="1" pageScale="1" pageWidth="850" pageHeight="1100" math="0" shadow="0">
      <root>
        <mxCell id="0" />
        <mxCell id="1" parent="0" />
        <mxCell id="4n1HNu-v_c5PCeEHcLF9-17" value="" style="edgeStyle=orthogonalEdgeStyle;rounded=0;orthogonalLoop=1;jettySize=auto;html=1;" edge="1" parent="1" source="4n1HNu-v_c5PCeEHcLF9-1" target="4n1HNu-v_c5PCeEHcLF9-2">
          <mxGeometry relative="1" as="geometry" />
        </mxCell>
        <mxCell id="4n1HNu-v_c5PCeEHcLF9-1" value="Start" style="strokeWidth=2;html=1;shape=mxgraph.flowchart.terminator;whiteSpace=wrap;" vertex="1" parent="1">
          <mxGeometry x="30" y="53" width="100" height="60" as="geometry" />
        </mxCell>
        <mxCell id="4n1HNu-v_c5PCeEHcLF9-29" value="" style="edgeStyle=orthogonalEdgeStyle;rounded=0;orthogonalLoop=1;jettySize=auto;html=1;" edge="1" parent="1" source="4n1HNu-v_c5PCeEHcLF9-2" target="4n1HNu-v_c5PCeEHcLF9-28">
          <mxGeometry relative="1" as="geometry" />
        </mxCell>
        <mxCell id="4n1HNu-v_c5PCeEHcLF9-2" value="Display Introduction" style="strokeWidth=2;html=1;shape=mxgraph.flowchart.display;whiteSpace=wrap;" vertex="1" parent="1">
          <mxGeometry x="30" y="143" width="100" height="60" as="geometry" />
        </mxCell>
        <mxCell id="4n1HNu-v_c5PCeEHcLF9-20" value="" style="edgeStyle=orthogonalEdgeStyle;rounded=0;orthogonalLoop=1;jettySize=auto;html=1;" edge="1" parent="1" source="4n1HNu-v_c5PCeEHcLF9-3" target="4n1HNu-v_c5PCeEHcLF9-5">
          <mxGeometry relative="1" as="geometry" />
        </mxCell>
        <mxCell id="4n1HNu-v_c5PCeEHcLF9-21" value="" style="edgeStyle=orthogonalEdgeStyle;rounded=0;orthogonalLoop=1;jettySize=auto;html=1;" edge="1" parent="1" source="4n1HNu-v_c5PCeEHcLF9-3" target="4n1HNu-v_c5PCeEHcLF9-7">
          <mxGeometry relative="1" as="geometry" />
        </mxCell>
        <mxCell id="4n1HNu-v_c5PCeEHcLF9-3" value="User&lt;div&gt;Selected 0&lt;/div&gt;" style="strokeWidth=2;html=1;shape=mxgraph.flowchart.decision;whiteSpace=wrap;" vertex="1" parent="1">
          <mxGeometry x="300" y="30" width="100" height="100" as="geometry" />
        </mxCell>
        <mxCell id="4n1HNu-v_c5PCeEHcLF9-5" value="Stop" style="strokeWidth=2;html=1;shape=mxgraph.flowchart.terminator;whiteSpace=wrap;" vertex="1" parent="1">
          <mxGeometry x="430" y="50" width="100" height="60" as="geometry" />
        </mxCell>
        <mxCell id="4n1HNu-v_c5PCeEHcLF9-22" value="" style="edgeStyle=orthogonalEdgeStyle;rounded=0;orthogonalLoop=1;jettySize=auto;html=1;" edge="1" parent="1" source="4n1HNu-v_c5PCeEHcLF9-7" target="4n1HNu-v_c5PCeEHcLF9-8">
          <mxGeometry relative="1" as="geometry" />
        </mxCell>
        <mxCell id="4n1HNu-v_c5PCeEHcLF9-68" value="" style="edgeStyle=orthogonalEdgeStyle;rounded=0;orthogonalLoop=1;jettySize=auto;html=1;" edge="1" parent="1" source="4n1HNu-v_c5PCeEHcLF9-7" target="4n1HNu-v_c5PCeEHcLF9-48">
          <mxGeometry relative="1" as="geometry" />
        </mxCell>
        <mxCell id="4n1HNu-v_c5PCeEHcLF9-7" value="User&lt;div&gt;Selected 1&lt;/div&gt;" style="strokeWidth=2;html=1;shape=mxgraph.flowchart.decision;whiteSpace=wrap;" vertex="1" parent="1">
          <mxGeometry x="300" y="160" width="100" height="100" as="geometry" />
        </mxCell>
        <mxCell id="4n1HNu-v_c5PCeEHcLF9-23" value="" style="edgeStyle=orthogonalEdgeStyle;rounded=0;orthogonalLoop=1;jettySize=auto;html=1;" edge="1" parent="1" source="4n1HNu-v_c5PCeEHcLF9-8" target="4n1HNu-v_c5PCeEHcLF9-10">
          <mxGeometry relative="1" as="geometry" />
        </mxCell>
        <mxCell id="4n1HNu-v_c5PCeEHcLF9-67" value="" style="edgeStyle=orthogonalEdgeStyle;rounded=0;orthogonalLoop=1;jettySize=auto;html=1;" edge="1" parent="1" source="4n1HNu-v_c5PCeEHcLF9-8" target="4n1HNu-v_c5PCeEHcLF9-49">
          <mxGeometry relative="1" as="geometry" />
        </mxCell>
        <mxCell id="4n1HNu-v_c5PCeEHcLF9-8" value="User&lt;div&gt;Selected 2&lt;/div&gt;" style="strokeWidth=2;html=1;shape=mxgraph.flowchart.decision;whiteSpace=wrap;" vertex="1" parent="1">
          <mxGeometry x="300" y="290" width="100" height="100" as="geometry" />
        </mxCell>
        <mxCell id="4n1HNu-v_c5PCeEHcLF9-24" value="" style="edgeStyle=orthogonalEdgeStyle;rounded=0;orthogonalLoop=1;jettySize=auto;html=1;" edge="1" parent="1" source="4n1HNu-v_c5PCeEHcLF9-10" target="4n1HNu-v_c5PCeEHcLF9-11">
          <mxGeometry relative="1" as="geometry" />
        </mxCell>
        <mxCell id="4n1HNu-v_c5PCeEHcLF9-64" value="" style="edgeStyle=orthogonalEdgeStyle;rounded=0;orthogonalLoop=1;jettySize=auto;html=1;" edge="1" parent="1" source="4n1HNu-v_c5PCeEHcLF9-10" target="4n1HNu-v_c5PCeEHcLF9-51">
          <mxGeometry relative="1" as="geometry" />
        </mxCell>
        <mxCell id="4n1HNu-v_c5PCeEHcLF9-10" value="User&lt;div&gt;Selected 3&lt;/div&gt;" style="strokeWidth=2;html=1;shape=mxgraph.flowchart.decision;whiteSpace=wrap;" vertex="1" parent="1">
          <mxGeometry x="300" y="420" width="100" height="100" as="geometry" />
        </mxCell>
        <mxCell id="4n1HNu-v_c5PCeEHcLF9-25" value="" style="edgeStyle=orthogonalEdgeStyle;rounded=0;orthogonalLoop=1;jettySize=auto;html=1;" edge="1" parent="1" source="4n1HNu-v_c5PCeEHcLF9-11" target="4n1HNu-v_c5PCeEHcLF9-13">
          <mxGeometry relative="1" as="geometry" />
        </mxCell>
        <mxCell id="4n1HNu-v_c5PCeEHcLF9-61" value="" style="edgeStyle=orthogonalEdgeStyle;rounded=0;orthogonalLoop=1;jettySize=auto;html=1;" edge="1" parent="1" source="4n1HNu-v_c5PCeEHcLF9-11" target="4n1HNu-v_c5PCeEHcLF9-55">
          <mxGeometry relative="1" as="geometry" />
        </mxCell>
        <mxCell id="4n1HNu-v_c5PCeEHcLF9-11" value="User&lt;div&gt;Selected 4&lt;/div&gt;" style="strokeWidth=2;html=1;shape=mxgraph.flowchart.decision;whiteSpace=wrap;" vertex="1" parent="1">
          <mxGeometry x="300" y="550" width="100" height="100" as="geometry" />
        </mxCell>
        <mxCell id="4n1HNu-v_c5PCeEHcLF9-19" value="" style="edgeStyle=orthogonalEdgeStyle;rounded=0;orthogonalLoop=1;jettySize=auto;html=1;" edge="1" parent="1" source="4n1HNu-v_c5PCeEHcLF9-12" target="4n1HNu-v_c5PCeEHcLF9-3">
          <mxGeometry relative="1" as="geometry" />
        </mxCell>
        <mxCell id="4n1HNu-v_c5PCeEHcLF9-12" value="Wait for&amp;nbsp;&lt;div&gt;user input&lt;/div&gt;" style="shape=parallelogram;html=1;strokeWidth=2;perimeter=parallelogramPerimeter;whiteSpace=wrap;rounded=1;arcSize=12;size=0.23;" vertex="1" parent="1">
          <mxGeometry x="170" y="50" width="100" height="60" as="geometry" />
        </mxCell>
        <mxCell id="4n1HNu-v_c5PCeEHcLF9-26" value="" style="edgeStyle=orthogonalEdgeStyle;rounded=0;orthogonalLoop=1;jettySize=auto;html=1;" edge="1" parent="1" source="4n1HNu-v_c5PCeEHcLF9-13" target="4n1HNu-v_c5PCeEHcLF9-14">
          <mxGeometry relative="1" as="geometry" />
        </mxCell>
        <mxCell id="4n1HNu-v_c5PCeEHcLF9-45" value="" style="edgeStyle=orthogonalEdgeStyle;rounded=0;orthogonalLoop=1;jettySize=auto;html=1;" edge="1" parent="1" source="4n1HNu-v_c5PCeEHcLF9-13" target="4n1HNu-v_c5PCeEHcLF9-37">
          <mxGeometry relative="1" as="geometry" />
        </mxCell>
        <mxCell id="4n1HNu-v_c5PCeEHcLF9-13" value="Selected 5" style="strokeWidth=2;html=1;shape=mxgraph.flowchart.decision;whiteSpace=wrap;" vertex="1" parent="1">
          <mxGeometry x="300" y="680" width="100" height="100" as="geometry" />
        </mxCell>
        <mxCell id="4n1HNu-v_c5PCeEHcLF9-27" value="" style="edgeStyle=orthogonalEdgeStyle;rounded=0;orthogonalLoop=1;jettySize=auto;html=1;" edge="1" parent="1" source="4n1HNu-v_c5PCeEHcLF9-14" target="4n1HNu-v_c5PCeEHcLF9-15">
          <mxGeometry relative="1" as="geometry" />
        </mxCell>
        <mxCell id="4n1HNu-v_c5PCeEHcLF9-44" value="" style="edgeStyle=orthogonalEdgeStyle;rounded=0;orthogonalLoop=1;jettySize=auto;html=1;" edge="1" parent="1" source="4n1HNu-v_c5PCeEHcLF9-14" target="4n1HNu-v_c5PCeEHcLF9-38">
          <mxGeometry relative="1" as="geometry" />
        </mxCell>
        <mxCell id="4n1HNu-v_c5PCeEHcLF9-14" value="Selected 6" style="strokeWidth=2;html=1;shape=mxgraph.flowchart.decision;whiteSpace=wrap;" vertex="1" parent="1">
          <mxGeometry x="300" y="810" width="100" height="100" as="geometry" />
        </mxCell>
        <mxCell id="4n1HNu-v_c5PCeEHcLF9-32" style="edgeStyle=orthogonalEdgeStyle;rounded=0;orthogonalLoop=1;jettySize=auto;html=1;exitX=0.5;exitY=1;exitDx=0;exitDy=0;exitPerimeter=0;" edge="1" parent="1" source="4n1HNu-v_c5PCeEHcLF9-15">
          <mxGeometry relative="1" as="geometry">
            <mxPoint x="350" y="1070" as="targetPoint" />
          </mxGeometry>
        </mxCell>
        <mxCell id="4n1HNu-v_c5PCeEHcLF9-42" value="" style="edgeStyle=orthogonalEdgeStyle;rounded=0;orthogonalLoop=1;jettySize=auto;html=1;" edge="1" parent="1" source="4n1HNu-v_c5PCeEHcLF9-15" target="4n1HNu-v_c5PCeEHcLF9-39">
          <mxGeometry relative="1" as="geometry" />
        </mxCell>
        <mxCell id="4n1HNu-v_c5PCeEHcLF9-15" value="Selected 7" style="strokeWidth=2;html=1;shape=mxgraph.flowchart.decision;whiteSpace=wrap;" vertex="1" parent="1">
          <mxGeometry x="300" y="940" width="100" height="100" as="geometry" />
        </mxCell>
        <mxCell id="4n1HNu-v_c5PCeEHcLF9-30" style="edgeStyle=orthogonalEdgeStyle;rounded=0;orthogonalLoop=1;jettySize=auto;html=1;exitX=1;exitY=0.5;exitDx=0;exitDy=0;exitPerimeter=0;" edge="1" parent="1" source="4n1HNu-v_c5PCeEHcLF9-28" target="4n1HNu-v_c5PCeEHcLF9-12">
          <mxGeometry relative="1" as="geometry">
            <mxPoint x="150" y="70" as="targetPoint" />
            <Array as="points">
              <mxPoint x="150" y="263" />
              <mxPoint x="150" y="80" />
            </Array>
          </mxGeometry>
        </mxCell>
        <mxCell id="4n1HNu-v_c5PCeEHcLF9-28" value="Display Menu" style="strokeWidth=2;html=1;shape=mxgraph.flowchart.display;whiteSpace=wrap;" vertex="1" parent="1">
          <mxGeometry x="30" y="233" width="100" height="60" as="geometry" />
        </mxCell>
        <mxCell id="4n1HNu-v_c5PCeEHcLF9-71" style="edgeStyle=orthogonalEdgeStyle;rounded=0;orthogonalLoop=1;jettySize=auto;html=1;exitX=1;exitY=0.5;exitDx=0;exitDy=0;" edge="1" parent="1" source="4n1HNu-v_c5PCeEHcLF9-35">
          <mxGeometry relative="1" as="geometry">
            <mxPoint x="820" y="600" as="targetPoint" />
          </mxGeometry>
        </mxCell>
        <mxCell id="4n1HNu-v_c5PCeEHcLF9-73" style="edgeStyle=orthogonalEdgeStyle;rounded=0;orthogonalLoop=1;jettySize=auto;html=1;exitX=1;exitY=0.5;exitDx=0;exitDy=0;" edge="1" parent="1" source="4n1HNu-v_c5PCeEHcLF9-35">
          <mxGeometry relative="1" as="geometry">
            <mxPoint x="820" y="470" as="targetPoint" />
          </mxGeometry>
        </mxCell>
        <mxCell id="4n1HNu-v_c5PCeEHcLF9-35" value="Create the Vehicle and add it to the inventory" style="rounded=1;whiteSpace=wrap;html=1;absoluteArcSize=1;arcSize=14;strokeWidth=2;" vertex="1" parent="1">
          <mxGeometry x="690" y="420" width="100" height="100" as="geometry" />
        </mxCell>
        <mxCell id="4n1HNu-v_c5PCeEHcLF9-60" value="" style="edgeStyle=orthogonalEdgeStyle;rounded=0;orthogonalLoop=1;jettySize=auto;html=1;" edge="1" parent="1" source="4n1HNu-v_c5PCeEHcLF9-37" target="4n1HNu-v_c5PCeEHcLF9-56">
          <mxGeometry relative="1" as="geometry" />
        </mxCell>
        <mxCell id="4n1HNu-v_c5PCeEHcLF9-37" value="Calculate the cart total price" style="rounded=1;whiteSpace=wrap;html=1;absoluteArcSize=1;arcSize=14;strokeWidth=2;" vertex="1" parent="1">
          <mxGeometry x="430" y="680" width="100" height="100" as="geometry" />
        </mxCell>
        <mxCell id="4n1HNu-v_c5PCeEHcLF9-57" style="edgeStyle=orthogonalEdgeStyle;rounded=0;orthogonalLoop=1;jettySize=auto;html=1;exitX=1;exitY=0.5;exitDx=0;exitDy=0;" edge="1" parent="1" source="4n1HNu-v_c5PCeEHcLF9-38">
          <mxGeometry relative="1" as="geometry">
            <mxPoint x="480" y="1070" as="targetPoint" />
            <Array as="points">
              <mxPoint x="610" y="860" />
              <mxPoint x="610" y="1070" />
            </Array>
          </mxGeometry>
        </mxCell>
        <mxCell id="4n1HNu-v_c5PCeEHcLF9-59" style="edgeStyle=orthogonalEdgeStyle;rounded=0;orthogonalLoop=1;jettySize=auto;html=1;exitX=1;exitY=0.5;exitDx=0;exitDy=0;" edge="1" parent="1" source="4n1HNu-v_c5PCeEHcLF9-38">
          <mxGeometry relative="1" as="geometry">
            <mxPoint x="610" y="860" as="targetPoint" />
          </mxGeometry>
        </mxCell>
        <mxCell id="4n1HNu-v_c5PCeEHcLF9-38" value="save file" style="rounded=1;whiteSpace=wrap;html=1;absoluteArcSize=1;arcSize=14;strokeWidth=2;" vertex="1" parent="1">
          <mxGeometry x="430" y="810" width="100" height="100" as="geometry" />
        </mxCell>
        <mxCell id="4n1HNu-v_c5PCeEHcLF9-40" style="edgeStyle=orthogonalEdgeStyle;rounded=0;orthogonalLoop=1;jettySize=auto;html=1;exitX=0.5;exitY=1;exitDx=0;exitDy=0;" edge="1" parent="1" source="4n1HNu-v_c5PCeEHcLF9-39">
          <mxGeometry relative="1" as="geometry">
            <mxPoint x="350" y="1070" as="targetPoint" />
            <Array as="points">
              <mxPoint x="480" y="1070" />
              <mxPoint x="410" y="1070" />
            </Array>
          </mxGeometry>
        </mxCell>
        <mxCell id="4n1HNu-v_c5PCeEHcLF9-41" style="edgeStyle=orthogonalEdgeStyle;rounded=0;orthogonalLoop=1;jettySize=auto;html=1;exitX=0.5;exitY=1;exitDx=0;exitDy=0;" edge="1" parent="1" source="4n1HNu-v_c5PCeEHcLF9-39">
          <mxGeometry relative="1" as="geometry">
            <mxPoint x="480" y="1070" as="targetPoint" />
          </mxGeometry>
        </mxCell>
        <mxCell id="4n1HNu-v_c5PCeEHcLF9-39" value="load file" style="rounded=1;whiteSpace=wrap;html=1;absoluteArcSize=1;arcSize=14;strokeWidth=2;" vertex="1" parent="1">
          <mxGeometry x="430" y="940" width="100" height="100" as="geometry" />
        </mxCell>
        <mxCell id="4n1HNu-v_c5PCeEHcLF9-76" style="edgeStyle=orthogonalEdgeStyle;rounded=0;orthogonalLoop=1;jettySize=auto;html=1;exitX=1;exitY=0.5;exitDx=0;exitDy=0;exitPerimeter=0;" edge="1" parent="1" source="4n1HNu-v_c5PCeEHcLF9-48">
          <mxGeometry relative="1" as="geometry">
            <mxPoint x="820" y="340" as="targetPoint" />
          </mxGeometry>
        </mxCell>
        <mxCell id="4n1HNu-v_c5PCeEHcLF9-48" value="Display the current vehicles&lt;div&gt;in inventory&lt;/div&gt;" style="strokeWidth=2;html=1;shape=mxgraph.flowchart.display;whiteSpace=wrap;" vertex="1" parent="1">
          <mxGeometry x="430" y="180" width="100" height="60" as="geometry" />
        </mxCell>
        <mxCell id="4n1HNu-v_c5PCeEHcLF9-74" style="edgeStyle=orthogonalEdgeStyle;rounded=0;orthogonalLoop=1;jettySize=auto;html=1;exitX=1;exitY=0.5;exitDx=0;exitDy=0;exitPerimeter=0;" edge="1" parent="1" source="4n1HNu-v_c5PCeEHcLF9-49">
          <mxGeometry relative="1" as="geometry">
            <mxPoint x="820" y="470" as="targetPoint" />
          </mxGeometry>
        </mxCell>
        <mxCell id="4n1HNu-v_c5PCeEHcLF9-75" style="edgeStyle=orthogonalEdgeStyle;rounded=0;orthogonalLoop=1;jettySize=auto;html=1;exitX=1;exitY=0.5;exitDx=0;exitDy=0;exitPerimeter=0;" edge="1" parent="1" source="4n1HNu-v_c5PCeEHcLF9-49">
          <mxGeometry relative="1" as="geometry">
            <mxPoint x="820" y="340" as="targetPoint" />
          </mxGeometry>
        </mxCell>
        <mxCell id="4n1HNu-v_c5PCeEHcLF9-49" value="Display the current vehicles&lt;div&gt;in the cart&lt;/div&gt;" style="strokeWidth=2;html=1;shape=mxgraph.flowchart.display;whiteSpace=wrap;" vertex="1" parent="1">
          <mxGeometry x="430" y="310" width="100" height="60" as="geometry" />
        </mxCell>
        <mxCell id="4n1HNu-v_c5PCeEHcLF9-66" value="" style="edgeStyle=orthogonalEdgeStyle;rounded=0;orthogonalLoop=1;jettySize=auto;html=1;" edge="1" parent="1" source="4n1HNu-v_c5PCeEHcLF9-50" target="4n1HNu-v_c5PCeEHcLF9-35">
          <mxGeometry relative="1" as="geometry" />
        </mxCell>
        <mxCell id="4n1HNu-v_c5PCeEHcLF9-50" value="Receive&lt;div&gt;Users input&lt;/div&gt;" style="shape=parallelogram;html=1;strokeWidth=2;perimeter=parallelogramPerimeter;whiteSpace=wrap;rounded=1;arcSize=12;size=0.23;" vertex="1" parent="1">
          <mxGeometry x="560" y="440" width="100" height="60" as="geometry" />
        </mxCell>
        <mxCell id="4n1HNu-v_c5PCeEHcLF9-65" value="" style="edgeStyle=orthogonalEdgeStyle;rounded=0;orthogonalLoop=1;jettySize=auto;html=1;" edge="1" parent="1" source="4n1HNu-v_c5PCeEHcLF9-51" target="4n1HNu-v_c5PCeEHcLF9-50">
          <mxGeometry relative="1" as="geometry" />
        </mxCell>
        <mxCell id="4n1HNu-v_c5PCeEHcLF9-51" value="Display Create Vehicle Menu&amp;nbsp;" style="strokeWidth=2;html=1;shape=mxgraph.flowchart.display;whiteSpace=wrap;" vertex="1" parent="1">
          <mxGeometry x="430" y="440" width="100" height="60" as="geometry" />
        </mxCell>
        <mxCell id="4n1HNu-v_c5PCeEHcLF9-52" value="" style="endArrow=classic;html=1;rounded=0;entryX=0.5;entryY=1;entryDx=0;entryDy=0;entryPerimeter=0;" edge="1" parent="1" target="4n1HNu-v_c5PCeEHcLF9-28">
          <mxGeometry width="50" height="50" relative="1" as="geometry">
            <mxPoint x="360" y="1070" as="sourcePoint" />
            <mxPoint x="80" y="560" as="targetPoint" />
            <Array as="points">
              <mxPoint x="80" y="1070" />
            </Array>
          </mxGeometry>
        </mxCell>
        <mxCell id="4n1HNu-v_c5PCeEHcLF9-70" style="edgeStyle=orthogonalEdgeStyle;rounded=0;orthogonalLoop=1;jettySize=auto;html=1;exitX=1;exitY=0.5;exitDx=0;exitDy=0;" edge="1" parent="1" source="4n1HNu-v_c5PCeEHcLF9-53">
          <mxGeometry relative="1" as="geometry">
            <mxPoint x="610" y="1070" as="targetPoint" />
            <Array as="points">
              <mxPoint x="820" y="600" />
              <mxPoint x="820" y="1070" />
            </Array>
          </mxGeometry>
        </mxCell>
        <mxCell id="4n1HNu-v_c5PCeEHcLF9-72" style="edgeStyle=orthogonalEdgeStyle;rounded=0;orthogonalLoop=1;jettySize=auto;html=1;exitX=1;exitY=0.5;exitDx=0;exitDy=0;" edge="1" parent="1" source="4n1HNu-v_c5PCeEHcLF9-53">
          <mxGeometry relative="1" as="geometry">
            <mxPoint x="820" y="600" as="targetPoint" />
          </mxGeometry>
        </mxCell>
        <mxCell id="4n1HNu-v_c5PCeEHcLF9-53" value="Add selected vehicle to the cart" style="rounded=1;whiteSpace=wrap;html=1;absoluteArcSize=1;arcSize=14;strokeWidth=2;" vertex="1" parent="1">
          <mxGeometry x="690" y="550" width="100" height="100" as="geometry" />
        </mxCell>
        <mxCell id="4n1HNu-v_c5PCeEHcLF9-63" value="" style="edgeStyle=orthogonalEdgeStyle;rounded=0;orthogonalLoop=1;jettySize=auto;html=1;" edge="1" parent="1" source="4n1HNu-v_c5PCeEHcLF9-54" target="4n1HNu-v_c5PCeEHcLF9-53">
          <mxGeometry relative="1" as="geometry" />
        </mxCell>
        <mxCell id="4n1HNu-v_c5PCeEHcLF9-54" value="Receive&lt;div&gt;Users input&lt;/div&gt;" style="shape=parallelogram;html=1;strokeWidth=2;perimeter=parallelogramPerimeter;whiteSpace=wrap;rounded=1;arcSize=12;size=0.23;" vertex="1" parent="1">
          <mxGeometry x="560" y="570" width="100" height="60" as="geometry" />
        </mxCell>
        <mxCell id="4n1HNu-v_c5PCeEHcLF9-62" value="" style="edgeStyle=orthogonalEdgeStyle;rounded=0;orthogonalLoop=1;jettySize=auto;html=1;" edge="1" parent="1" source="4n1HNu-v_c5PCeEHcLF9-55" target="4n1HNu-v_c5PCeEHcLF9-54">
          <mxGeometry relative="1" as="geometry" />
        </mxCell>
        <mxCell id="4n1HNu-v_c5PCeEHcLF9-55" value="Display Add to Cart Menu&amp;nbsp;" style="strokeWidth=2;html=1;shape=mxgraph.flowchart.display;whiteSpace=wrap;" vertex="1" parent="1">
          <mxGeometry x="430" y="570" width="100" height="60" as="geometry" />
        </mxCell>
        <mxCell id="4n1HNu-v_c5PCeEHcLF9-58" style="edgeStyle=orthogonalEdgeStyle;rounded=0;orthogonalLoop=1;jettySize=auto;html=1;exitX=0.5;exitY=1;exitDx=0;exitDy=0;exitPerimeter=0;" edge="1" parent="1" source="4n1HNu-v_c5PCeEHcLF9-56">
          <mxGeometry relative="1" as="geometry">
            <mxPoint x="610" y="860" as="targetPoint" />
          </mxGeometry>
        </mxCell>
        <mxCell id="4n1HNu-v_c5PCeEHcLF9-56" value="Display the results of cart calculations&amp;nbsp;" style="strokeWidth=2;html=1;shape=mxgraph.flowchart.display;whiteSpace=wrap;" vertex="1" parent="1">
          <mxGeometry x="560" y="700" width="100" height="60" as="geometry" />
        </mxCell>
        <mxCell id="4n1HNu-v_c5PCeEHcLF9-79" value="" style="endArrow=classic;html=1;rounded=0;" edge="1" parent="1">
          <mxGeometry width="50" height="50" relative="1" as="geometry">
            <mxPoint x="610" y="860" as="sourcePoint" />
            <mxPoint x="610" y="1070" as="targetPoint" />
          </mxGeometry>
        </mxCell>
        <mxCell id="4n1HNu-v_c5PCeEHcLF9-80" value="/*&#xa; * Chad Galloway&#xa; * CST - 250 Programming in C# II&#xa; * 10/26/2025&#xa; * Vehicle Class Library&#xa; * Activity 1&#xa; * References:&#xa; */" style="text;whiteSpace=wrap;html=1;" vertex="1" parent="1">
          <mxGeometry x="590" y="30" width="210" height="140" as="geometry" />
        </mxCell>
      </root>
    </mxGraphModel>
  </diagram>
</mxfile>
